<mxfile host="app.diagrams.net" modified="2023-05-18T15:06:55.643Z" agent="Mozilla/5.0 (Windows NT 10.0; Win64; x64; rv:109.0) Gecko/20100101 Firefox/112.0" etag="OZ3LD6eyvFsww-kbS8L2" version="21.3.2" type="device">
  <diagram name="Página-1" id="slQNQtgJDI4Jq-26DAOy">
    <mxGraphModel dx="1588" dy="844" grid="1" gridSize="10" guides="1" tooltips="1" connect="1" arrows="1" fold="1" page="1" pageScale="1" pageWidth="827" pageHeight="1169" math="0" shadow="0">
      <root>
        <mxCell id="0" />
        <mxCell id="1" parent="0" />
        <mxCell id="xXP-hQiw-ZYI3y9vllLW-4" value="" style="edgeStyle=orthogonalEdgeStyle;rounded=0;orthogonalLoop=1;jettySize=auto;html=1;" edge="1" parent="1" source="xXP-hQiw-ZYI3y9vllLW-2" target="xXP-hQiw-ZYI3y9vllLW-3">
          <mxGeometry relative="1" as="geometry" />
        </mxCell>
        <mxCell id="xXP-hQiw-ZYI3y9vllLW-2" value="Inicio" style="ellipse;whiteSpace=wrap;html=1;fillColor=#0050ef;fontColor=#ffffff;strokeColor=#001DBC;" vertex="1" parent="1">
          <mxGeometry x="400" y="30" width="120" height="80" as="geometry" />
        </mxCell>
        <mxCell id="xXP-hQiw-ZYI3y9vllLW-6" value="" style="edgeStyle=orthogonalEdgeStyle;rounded=0;orthogonalLoop=1;jettySize=auto;html=1;" edge="1" parent="1" source="xXP-hQiw-ZYI3y9vllLW-3" target="xXP-hQiw-ZYI3y9vllLW-5">
          <mxGeometry relative="1" as="geometry" />
        </mxCell>
        <mxCell id="xXP-hQiw-ZYI3y9vllLW-3" value="Numero" style="shape=parallelogram;perimeter=parallelogramPerimeter;whiteSpace=wrap;html=1;fixedSize=1;" vertex="1" parent="1">
          <mxGeometry x="400" y="160" width="120" height="60" as="geometry" />
        </mxCell>
        <mxCell id="xXP-hQiw-ZYI3y9vllLW-8" value="" style="edgeStyle=orthogonalEdgeStyle;rounded=0;orthogonalLoop=1;jettySize=auto;html=1;" edge="1" parent="1" source="xXP-hQiw-ZYI3y9vllLW-5" target="xXP-hQiw-ZYI3y9vllLW-7">
          <mxGeometry relative="1" as="geometry" />
        </mxCell>
        <mxCell id="xXP-hQiw-ZYI3y9vllLW-10" value="" style="edgeStyle=orthogonalEdgeStyle;rounded=0;orthogonalLoop=1;jettySize=auto;html=1;" edge="1" parent="1" source="xXP-hQiw-ZYI3y9vllLW-5" target="xXP-hQiw-ZYI3y9vllLW-9">
          <mxGeometry relative="1" as="geometry" />
        </mxCell>
        <mxCell id="xXP-hQiw-ZYI3y9vllLW-5" value="Numero &amp;gt; 10" style="rhombus;whiteSpace=wrap;html=1;" vertex="1" parent="1">
          <mxGeometry x="420" y="274" width="80" height="80" as="geometry" />
        </mxCell>
        <mxCell id="xXP-hQiw-ZYI3y9vllLW-14" style="edgeStyle=orthogonalEdgeStyle;rounded=0;orthogonalLoop=1;jettySize=auto;html=1;entryX=1;entryY=0.5;entryDx=0;entryDy=0;" edge="1" parent="1" source="xXP-hQiw-ZYI3y9vllLW-7" target="xXP-hQiw-ZYI3y9vllLW-11">
          <mxGeometry relative="1" as="geometry" />
        </mxCell>
        <mxCell id="xXP-hQiw-ZYI3y9vllLW-7" value="&quot;Acesso permitido&quot;" style="shape=document;whiteSpace=wrap;html=1;boundedLbl=1;" vertex="1" parent="1">
          <mxGeometry x="510" y="390" width="120" height="80" as="geometry" />
        </mxCell>
        <mxCell id="xXP-hQiw-ZYI3y9vllLW-13" style="edgeStyle=orthogonalEdgeStyle;rounded=0;orthogonalLoop=1;jettySize=auto;html=1;entryX=0;entryY=0.5;entryDx=0;entryDy=0;" edge="1" parent="1" source="xXP-hQiw-ZYI3y9vllLW-9" target="xXP-hQiw-ZYI3y9vllLW-11">
          <mxGeometry relative="1" as="geometry" />
        </mxCell>
        <mxCell id="xXP-hQiw-ZYI3y9vllLW-9" value="&quot;Você não tem o nível necessário&quot;" style="shape=document;whiteSpace=wrap;html=1;boundedLbl=1;" vertex="1" parent="1">
          <mxGeometry x="294" y="400" width="120" height="80" as="geometry" />
        </mxCell>
        <mxCell id="xXP-hQiw-ZYI3y9vllLW-11" value="Fim" style="ellipse;whiteSpace=wrap;html=1;fillColor=#0050ef;fontColor=#ffffff;strokeColor=#001DBC;" vertex="1" parent="1">
          <mxGeometry x="400" y="500" width="120" height="80" as="geometry" />
        </mxCell>
      </root>
    </mxGraphModel>
  </diagram>
</mxfile>
